<svg width="1030" height="979" viewBox="0 0 1030 979" fill="none" xmlns="http://www.w3.org/2000/svg">
<ellipse cx="515" cy="489.5" rx="515" ry="489.5" fill="#D9D9D9"/>
<path d="M900.987 404.518C890.987 356.418 866.287 278.018 799.887 211.618C684.487 96.1183 496.387 70.0183 356.587 139.218C291.687 171.318 250.387 217.418 227.987 247.218C234.387 261.018 242.487 283.618 239.487 310.418C230.987 387.518 136.487 452.018 93.5873 431.018C53.1873 411.218 42.0873 307.518 93.5873 250.718C125.487 215.618 170.387 210.418 185.487 209.418C282.087 90.8183 432.887 31.7183 579.387 56.6183C749.487 85.4183 886.487 222.818 919.387 399.918C919.487 403.818 917.587 407.518 914.387 409.118C910.087 411.318 903.987 409.618 900.987 404.518Z" fill="#361702"/>
<path d="M128.687 584.918C155.387 727.418 261.387 842.418 400.587 880.018C543.187 918.518 696.187 869.218 790.287 754.418C775.687 714.918 780.387 686.418 784.187 672.518C789.387 653.318 793.387 658.718 820.187 606.718C834.387 579.118 839.087 566.218 853.087 560.818C866.787 555.518 881.287 560.318 890.587 564.618C879.187 586.018 868.587 602.418 861.087 613.218C840.687 642.718 824.387 659.018 830.087 673.718C830.587 675.118 833.087 681.318 838.087 682.518C855.187 686.518 885.387 628.818 889.787 620.518C900.787 599.418 906.187 583.618 918.087 582.218C924.387 581.518 929.987 585.118 933.787 588.318C921.487 619.118 909.587 642.518 900.887 658.418C890.687 676.918 878.687 696.518 885.987 706.318C886.187 706.518 889.187 710.518 893.987 710.918C905.487 711.818 914.987 691.318 926.487 669.918C934.487 655.118 946.687 633.818 963.987 608.318C968.787 611.618 975.087 617.018 977.987 625.418C983.387 641.218 972.787 656.018 954.787 684.818C918.187 743.618 921.987 747.118 907.287 758.318C897.687 765.618 877.987 777.918 845.287 780.518C835.487 792.418 689.687 962.918 471.887 936.018C296.087 914.318 148.987 773.218 112.487 586.018C112.687 585.718 115.687 581.418 120.887 581.418C125.587 581.418 128.287 584.418 128.687 584.918Z" fill="#361702"/>
<path d="M821.587 280.118C822.587 281.918 822.387 283.918 821.387 284.718C820.187 285.718 817.387 285.218 815.987 282.818C805.687 268.218 788.787 246.518 763.687 224.818C662.987 137.518 494.287 104.718 372.087 176.018C352.287 187.618 324.987 206.918 297.987 239.518C294.987 243.518 289.387 244.018 286.187 241.218C283.487 238.918 282.787 234.718 284.787 231.218C301.387 213.818 327.487 190.118 363.987 169.818C481.987 104.318 601.487 134.218 623.387 140.118C691.087 158.318 737.287 192.918 758.087 210.418C787.887 235.318 808.387 261.018 821.587 280.118Z" fill="#361702"/>
<path d="M284.187 319.718C293.887 277.418 336.187 243.718 379.987 258.918C462.187 287.518 452.287 396.518 423.687 459.618C407.187 495.818 382.487 529.118 352.087 554.818C361.587 563.718 370.387 571.518 381.287 577.718C391.987 583.818 405.587 585.918 418.287 584.918C410.587 610.818 379.187 630.218 353.187 625.018C332.087 620.818 321.387 600.818 312.587 583.018C295.687 592.118 278.887 598.918 260.287 603.818C205.487 616.118 190.687 566.418 192.787 521.218C196.187 449.018 228.087 367.018 284.187 319.718ZM335.287 536.918C368.887 499.018 387.487 445.918 394.987 396.518C400.387 361.118 404.587 297.518 365.687 277.618C340.887 265.618 328.087 293.918 327.387 314.318C326.687 335.818 341.787 365.418 367.787 354.118C364.587 411.718 293.187 406.318 284.187 354.318C257.487 390.318 245.487 439.518 243.787 483.618C281.287 471.818 313.687 513.318 335.287 536.918ZM292.787 562.118C296.187 562.018 299.587 561.318 302.687 560.118C292.787 536.218 277.087 500.318 244.887 511.018C248.287 537.018 262.087 565.318 292.787 562.118Z" fill="#361702"/>
<path d="M436.487 476.318C452.087 448.118 468.287 422.618 472.187 389.518C481.787 392.218 492.487 394.718 502.387 392.018C505.787 394.418 507.587 395.618 510.987 398.018C509.687 432.318 485.087 459.018 474.587 489.918C471.087 500.118 476.487 515.318 489.387 507.518C509.987 494.518 518.087 461.818 526.887 440.818C530.787 430.818 534.987 411.718 537.287 410.418C540.587 408.518 562.487 417.218 575.287 415.118C577.587 418.218 578.687 419.718 580.987 422.818C566.487 452.618 551.987 482.218 539.587 513.018C533.587 528.418 541.087 530.518 549.787 524.718C559.887 518.018 568.187 508.518 575.787 499.018C579.187 499.418 582.587 502.818 584.387 506.118C570.487 526.118 546.087 560.618 518.287 555.418C502.787 552.518 495.887 536.718 496.987 522.018C487.587 534.218 472.987 544.918 456.887 542.818C424.487 538.618 424.587 497.818 436.487 476.318Z" fill="#361702"/>
<path d="M571.587 507.718C581.587 485.218 594.387 462.818 603.387 439.218C616.787 443.718 630.487 448.618 644.787 448.918C645.487 450.918 645.887 451.918 646.587 453.918C629.487 476.818 618.087 503.518 607.287 529.718C601.087 544.418 608.587 546.318 617.487 540.618C627.487 534.118 635.687 524.418 643.287 515.018C646.687 515.218 650.287 518.318 651.887 521.218C638.187 541.418 613.787 575.118 585.987 570.218C556.887 565.218 563.187 526.618 571.587 507.718ZM632.287 395.218C643.587 397.318 658.087 403.718 659.087 416.518C659.987 427.618 648.787 433.418 638.787 432.518C626.787 431.418 610.987 423.618 609.587 410.218C608.387 397.918 622.187 393.318 632.287 395.218Z" fill="#361702"/>
<path d="M694.787 456.718C707.787 449.418 751.887 441.018 748.687 468.818C746.087 491.518 710.187 489.118 708.587 467.118C681.687 475.918 655.287 549.418 695.587 553.418C714.287 555.218 733.187 539.918 743.787 525.318C747.387 525.218 750.787 526.618 752.387 529.218C736.987 555.918 708.787 587.618 675.287 584.718C647.687 582.318 635.687 556.618 639.187 531.018C643.487 498.818 667.087 472.218 694.787 456.718Z" fill="#361702"/>
<path d="M793.387 397.018C809.287 394.718 825.187 391.718 838.987 383.018C841.387 384.318 842.587 384.918 844.987 386.118C831.487 414.718 818.787 443.518 806.187 472.518C813.187 464.118 821.487 457.018 830.187 450.418C838.187 444.418 885.687 419.518 876.487 448.818C869.787 470.318 850.587 489.718 832.187 502.718C847.987 506.518 838.787 526.318 835.087 535.018C829.587 547.818 835.987 548.118 843.387 540.818C857.487 526.918 868.087 508.218 877.987 491.118C881.387 488.918 884.787 488.918 886.587 490.018C874.187 513.418 861.387 537.818 842.887 556.718C833.387 566.318 794.287 586.618 792.087 559.718C790.787 543.218 808.987 529.618 807.487 514.218C804.587 511.918 796.287 513.718 787.687 516.318C779.187 537.318 770.787 558.418 763.687 580.018C748.187 581.718 732.887 582.618 717.387 582.718C744.587 523.518 780.387 461.318 793.387 397.018ZM833.487 467.018C823.787 463.118 799.687 493.118 792.387 506.518C801.887 505.018 845.087 471.618 833.487 467.018Z" fill="#361702"/>
<path d="M418.087 644.418C414.987 644.418 412.387 645.518 410.187 647.718C407.987 649.918 406.887 652.518 406.887 655.618V704.218H455.687V718.218H406.887V777.618H379.087V661.618C379.087 652.918 382.187 645.618 388.287 639.518C394.387 633.418 401.787 630.418 410.287 630.418H468.487V644.418H418.087Z" fill="#361702"/>
<path d="M479.987 684.118C489.387 673.418 500.787 668.018 514.087 668.018C527.387 668.018 538.787 673.418 548.187 684.118C557.587 694.818 562.287 707.818 562.287 722.918C562.287 738.018 557.587 750.918 548.187 761.618C538.787 772.318 527.387 777.618 514.087 777.618C500.787 777.618 489.387 772.318 479.987 761.618C470.587 750.918 465.887 738.018 465.887 722.918C465.887 707.818 470.587 694.818 479.987 684.118ZM500.187 754.818C503.987 763.618 508.587 768.018 514.087 768.018C519.587 768.018 524.187 763.618 527.987 754.818C531.787 746.018 533.687 735.318 533.687 722.818C533.687 710.318 531.787 699.618 527.987 690.818C524.187 682.018 519.587 677.618 514.187 677.618C508.787 677.618 504.187 682.018 500.287 690.818C496.387 699.618 494.487 710.318 494.487 722.818C494.487 735.318 496.387 746.018 500.187 754.818Z" fill="#361702"/>
<path d="M583.387 684.118C592.787 673.418 604.187 668.018 617.487 668.018C630.787 668.018 642.187 673.418 651.587 684.118C660.987 694.818 665.687 707.818 665.687 722.918C665.687 738.018 660.987 750.918 651.587 761.618C642.187 772.318 630.787 777.618 617.487 777.618C604.187 777.618 592.787 772.318 583.387 761.618C573.987 750.918 569.287 738.018 569.287 722.918C569.287 707.818 573.987 694.818 583.387 684.118ZM603.587 754.818C607.387 763.618 611.987 768.018 617.487 768.018C622.987 768.018 627.587 763.618 631.387 754.818C635.187 746.018 637.087 735.318 637.087 722.818C637.087 710.318 635.187 699.618 631.387 690.818C627.587 682.018 622.987 677.618 617.587 677.618C612.187 677.618 607.587 682.018 603.687 690.818C599.787 699.618 597.887 710.318 597.887 722.818C597.887 735.318 599.787 746.018 603.587 754.818Z" fill="#361702"/>
<path d="M736.487 630.418V668.018H718.687C711.387 668.018 704.887 669.218 699.287 671.518C693.687 673.818 689.287 676.718 686.087 680.218C682.887 683.718 680.287 687.818 678.287 692.718C676.287 697.618 674.987 702.218 674.287 706.618C673.587 711.018 673.287 715.718 673.287 720.618C673.287 725.518 673.587 730.318 674.287 734.918C674.987 739.518 676.287 744.518 678.387 749.918C680.487 755.318 683.187 760.018 686.487 763.918C689.787 767.818 694.487 771.118 700.487 773.718C706.287 776.218 712.987 777.518 720.687 777.618C711.787 786.418 698.087 798.718 679.487 810.718C630.987 842.318 584.987 849.718 555.487 854.018C525.387 858.518 442.187 869.718 355.187 829.718C348.787 826.818 320.587 813.518 288.487 789.018C242.187 753.718 215.487 716.018 215.487 716.018C215.487 716.018 239.487 751.318 280.287 785.018C330.087 826.218 381.187 845.618 414.987 855.318C414.987 855.318 534.387 887.518 674.387 825.618C674.387 825.618 723.687 803.818 755.787 762.518C758.887 758.518 760.587 754.518 760.587 754.518C761.587 752.118 762.387 749.618 762.987 747.018C763.587 744.418 763.987 742.618 764.087 741.718C764.187 740.818 764.287 740.018 764.287 739.518V630.418H736.487ZM712.987 768.118C710.787 766.818 708.687 764.518 706.787 761.118C704.887 757.718 703.387 752.618 702.487 745.818C701.587 739.018 701.087 730.418 701.087 720.018C701.087 714.118 701.487 708.818 702.187 704.118C702.887 699.418 703.887 695.518 704.987 692.618C706.087 689.718 707.487 687.118 708.987 685.018C710.487 682.918 711.887 681.318 713.087 680.318C714.287 679.318 715.587 678.518 716.987 677.918C718.387 677.318 719.287 677.018 719.787 676.918C720.287 676.818 720.587 676.718 720.887 676.618H736.487V739.618C736.487 759.918 731.287 770.018 720.887 770.018C717.787 770.018 715.187 769.418 712.987 768.118Z" fill="#361702"/>
</svg>
